G04 (created by PCBNEW (2013-07-07 BZR 4022)-stable) date 11/10/2014 9:18:01 PM*
%MOIN*%
G04 Gerber Fmt 3.4, Leading zero omitted, Abs format*
%FSLAX34Y34*%
G01*
G70*
G90*
G04 APERTURE LIST*
%ADD10C,0.00590551*%
%ADD11R,0.0787402X0.0787402*%
%ADD12R,0.0393701X0.0787402*%
%ADD13R,0.0787402X0.0393701*%
%ADD14R,0.055X0.035*%
%ADD15R,0.035X0.055*%
%ADD16R,0.06X0.06*%
%ADD17C,0.06*%
G04 APERTURE END LIST*
G54D10*
G54D11*
X42500Y-26300D03*
G54D12*
X43180Y-26300D03*
G54D13*
X42500Y-26980D03*
G54D12*
X41820Y-26300D03*
G54D11*
X48000Y-32000D03*
G54D13*
X48000Y-32680D03*
G54D12*
X47320Y-32000D03*
G54D13*
X48000Y-31320D03*
G54D11*
X48000Y-27200D03*
G54D13*
X48000Y-27880D03*
G54D12*
X47320Y-27200D03*
G54D13*
X48000Y-26520D03*
G54D11*
X42500Y-33000D03*
G54D12*
X41820Y-33000D03*
G54D13*
X42500Y-32320D03*
G54D12*
X43180Y-33000D03*
G54D14*
X44000Y-27925D03*
X44000Y-28675D03*
X44000Y-31375D03*
X44000Y-30625D03*
X42500Y-31375D03*
X42500Y-30625D03*
X41000Y-31375D03*
X41000Y-30625D03*
X42500Y-27925D03*
X42500Y-28675D03*
G54D15*
X46175Y-25800D03*
X45425Y-25800D03*
X46175Y-27200D03*
X45425Y-27200D03*
X46175Y-28600D03*
X45425Y-28600D03*
G54D14*
X41000Y-27925D03*
X41000Y-28675D03*
G54D15*
X46175Y-30600D03*
X45425Y-30600D03*
X46175Y-32000D03*
X45425Y-32000D03*
X46175Y-33400D03*
X45425Y-33400D03*
G54D16*
X52400Y-27100D03*
G54D17*
X52400Y-28100D03*
X52400Y-29100D03*
X52400Y-30100D03*
X52400Y-31100D03*
X52400Y-32100D03*
M02*
