G04 (created by PCBNEW (2013-07-07 BZR 4022)-stable) date 11/10/2014 9:18:01 PM*
%MOIN*%
G04 Gerber Fmt 3.4, Leading zero omitted, Abs format*
%FSLAX34Y34*%
G01*
G70*
G90*
G04 APERTURE LIST*
%ADD10C,0.00590551*%
%ADD11R,0.0787402X0.0787402*%
%ADD12R,0.0393701X0.0787402*%
%ADD13R,0.0787402X0.0393701*%
%ADD14R,0.055X0.035*%
%ADD15R,0.035X0.055*%
%ADD16R,0.06X0.06*%
%ADD17C,0.06*%
%ADD18C,0.035*%
%ADD19C,0.025*%
G04 APERTURE END LIST*
G54D10*
G54D11*
X42500Y-26300D03*
G54D12*
X43180Y-26300D03*
G54D13*
X42500Y-26980D03*
G54D12*
X41820Y-26300D03*
G54D11*
X48000Y-32000D03*
G54D13*
X48000Y-32680D03*
G54D12*
X47320Y-32000D03*
G54D13*
X48000Y-31320D03*
G54D11*
X48000Y-27200D03*
G54D13*
X48000Y-27880D03*
G54D12*
X47320Y-27200D03*
G54D13*
X48000Y-26520D03*
G54D11*
X42500Y-33000D03*
G54D12*
X41820Y-33000D03*
G54D13*
X42500Y-32320D03*
G54D12*
X43180Y-33000D03*
G54D14*
X44000Y-27925D03*
X44000Y-28675D03*
X44000Y-31375D03*
X44000Y-30625D03*
X42500Y-31375D03*
X42500Y-30625D03*
X41000Y-31375D03*
X41000Y-30625D03*
X42500Y-27925D03*
X42500Y-28675D03*
G54D15*
X46175Y-25800D03*
X45425Y-25800D03*
X46175Y-27200D03*
X45425Y-27200D03*
X46175Y-28600D03*
X45425Y-28600D03*
G54D14*
X41000Y-27925D03*
X41000Y-28675D03*
G54D15*
X46175Y-30600D03*
X45425Y-30600D03*
X46175Y-32000D03*
X45425Y-32000D03*
X46175Y-33400D03*
X45425Y-33400D03*
G54D16*
X52400Y-27100D03*
G54D17*
X52400Y-28100D03*
X52400Y-29100D03*
X52400Y-30100D03*
X52400Y-31100D03*
X52400Y-32100D03*
G54D18*
X44400Y-25800D03*
X44600Y-33400D03*
G54D19*
X42500Y-33000D02*
X42500Y-33700D01*
X42500Y-33700D02*
X42800Y-34000D01*
X42500Y-25500D02*
X42500Y-25300D01*
X42400Y-25200D02*
X42200Y-25200D01*
X42500Y-25300D02*
X42400Y-25200D01*
X40400Y-25600D02*
X40400Y-25400D01*
X42200Y-25200D02*
X40800Y-25200D01*
X40400Y-25600D02*
X40400Y-33800D01*
X40400Y-33800D02*
X40600Y-34000D01*
X40600Y-34000D02*
X42800Y-34000D01*
X40400Y-25400D02*
X40600Y-25200D01*
X40600Y-25200D02*
X40800Y-25200D01*
X42500Y-26300D02*
X42500Y-25500D01*
X52200Y-34000D02*
X52400Y-33800D01*
X42800Y-34000D02*
X43000Y-34000D01*
X43000Y-34000D02*
X52200Y-34000D01*
X52400Y-32100D02*
X52400Y-33800D01*
X43800Y-29400D02*
X49400Y-29400D01*
X49400Y-29400D02*
X50700Y-28100D01*
X44000Y-28675D02*
X44000Y-29200D01*
X44000Y-29200D02*
X43800Y-29400D01*
X42500Y-28675D02*
X42500Y-29100D01*
X42500Y-29100D02*
X42200Y-29400D01*
X41000Y-28675D02*
X41000Y-29200D01*
X41000Y-29200D02*
X41200Y-29400D01*
X52400Y-28100D02*
X50700Y-28100D01*
X49800Y-27200D02*
X48000Y-27200D01*
X50700Y-28100D02*
X49800Y-27200D01*
X42200Y-29400D02*
X43800Y-29400D01*
X41200Y-29400D02*
X42200Y-29400D01*
X44400Y-25800D02*
X44800Y-26200D01*
X45425Y-27200D02*
X45000Y-27200D01*
X45000Y-27200D02*
X44800Y-27400D01*
X45425Y-25800D02*
X45000Y-25800D01*
X45000Y-28600D02*
X45425Y-28600D01*
X44800Y-28400D02*
X45000Y-28600D01*
X44800Y-26000D02*
X44800Y-26200D01*
X44800Y-26200D02*
X44800Y-27400D01*
X44800Y-27400D02*
X44800Y-28400D01*
X45000Y-25800D02*
X44800Y-26000D01*
X42500Y-30625D02*
X42500Y-30100D01*
X42500Y-30100D02*
X42200Y-29800D01*
X43800Y-29800D02*
X50000Y-29800D01*
X42200Y-29800D02*
X43800Y-29800D01*
X44000Y-30000D02*
X44000Y-30625D01*
X43800Y-29800D02*
X44000Y-30000D01*
X41000Y-30625D02*
X41000Y-30000D01*
X41200Y-29800D02*
X42200Y-29800D01*
X41000Y-30000D02*
X41200Y-29800D01*
X52400Y-29100D02*
X50700Y-29100D01*
X50700Y-29100D02*
X50000Y-29800D01*
X49600Y-32000D02*
X48000Y-32000D01*
X50000Y-29800D02*
X49800Y-30000D01*
X49800Y-30000D02*
X49800Y-31800D01*
X49800Y-31800D02*
X49600Y-32000D01*
X44800Y-33200D02*
X44600Y-33400D01*
X45425Y-30600D02*
X45000Y-30600D01*
X44800Y-30800D02*
X44800Y-32200D01*
X45000Y-30600D02*
X44800Y-30800D01*
X45425Y-33400D02*
X45000Y-33400D01*
X45000Y-32000D02*
X45425Y-32000D01*
X44800Y-32200D02*
X45000Y-32000D01*
X44800Y-33200D02*
X44800Y-32200D01*
X45000Y-33400D02*
X44800Y-33200D01*
X48000Y-31320D02*
X48000Y-30800D01*
X47800Y-30600D02*
X46175Y-30600D01*
X48000Y-30800D02*
X47800Y-30600D01*
X42500Y-32320D02*
X42500Y-31375D01*
X43180Y-33000D02*
X43750Y-33000D01*
X44000Y-32750D02*
X44000Y-31375D01*
X43750Y-33000D02*
X44000Y-32750D01*
X43180Y-26300D02*
X43900Y-26300D01*
X44000Y-26400D02*
X44000Y-27925D01*
X43900Y-26300D02*
X44000Y-26400D01*
X41820Y-26300D02*
X41100Y-26300D01*
X41000Y-26400D02*
X41000Y-27925D01*
X41100Y-26300D02*
X41000Y-26400D01*
X42500Y-26980D02*
X42500Y-27925D01*
X48000Y-32680D02*
X48000Y-33200D01*
X47800Y-33400D02*
X46175Y-33400D01*
X48000Y-33200D02*
X47800Y-33400D01*
X47320Y-32000D02*
X46175Y-32000D01*
X48000Y-27880D02*
X48000Y-28400D01*
X47800Y-28600D02*
X46175Y-28600D01*
X48000Y-28400D02*
X47800Y-28600D01*
X47320Y-27200D02*
X46175Y-27200D01*
X48000Y-26520D02*
X48000Y-26000D01*
X47800Y-25800D02*
X46175Y-25800D01*
X48000Y-26000D02*
X47800Y-25800D01*
X41820Y-33000D02*
X41250Y-33000D01*
X41000Y-32750D02*
X41000Y-31375D01*
X41250Y-33000D02*
X41000Y-32750D01*
M02*
